<svg id="Layer_1" data-name="Layer 1" xmlns="http://www.w3.org/2000/svg" viewBox="0 0 152.03 37.65"><defs><style>.cls-1{fill:#8ea6ff;}</style></defs><path d="M116,198.77a11.31,11.31,0,0,1-6.17-1.72,11.92,11.92,0,0,1-4.3-4.68,15.15,15.15,0,0,1,0-13.39,12,12,0,0,1,4.3-4.69,11.41,11.41,0,0,1,6.22-1.72,10.4,10.4,0,0,1,4.8,1.09,9,9,0,0,1,3.43,3,8.37,8.37,0,0,1,1.41,4.43v9.12a8.56,8.56,0,0,1-1.38,4.4,8.77,8.77,0,0,1-3.44,3.05A10.61,10.61,0,0,1,116,198.77Zm1.3-6.3a6,6,0,0,0,4.64-1.93,6.88,6.88,0,0,0,1.77-4.84,7.53,7.53,0,0,0-.83-3.55,6.17,6.17,0,0,0-2.24-2.42,6.31,6.31,0,0,0-3.34-.86,6.19,6.19,0,0,0-3.31.89,6.28,6.28,0,0,0-2.24,2.39,7.42,7.42,0,0,0-.8,3.49,7.53,7.53,0,0,0,.8,3.55,6.14,6.14,0,0,0,2.27,2.39A6.21,6.21,0,0,0,117.32,192.47Zm6,5.78v-6.77l1.14-6.15-1.14-6.09v-6.15h6.87v25.16Z" transform="translate(-103.99 -161.17)"/><path d="M134.05,198.25V173.09h6.82v25.16Zm6.82-13.86-2.65-1.82a13.18,13.18,0,0,1,2.71-7.32,7.92,7.92,0,0,1,6.46-2.68,8.45,8.45,0,0,1,3.3.6,7.19,7.19,0,0,1,2.63,2l-4.27,4.95a3.15,3.15,0,0,0-1.38-1,5.28,5.28,0,0,0-1.85-.29,4.89,4.89,0,0,0-3.57,1.35A5.7,5.7,0,0,0,140.87,184.39Z" transform="translate(-103.99 -161.17)"/><path d="M164.94,198.83a13.68,13.68,0,0,1-6.87-1.75,13.09,13.09,0,0,1,0-22.85,14.79,14.79,0,0,1,12.4-.65,12.52,12.52,0,0,1,4.37,3.16l-4.48,4.48A5.74,5.74,0,0,0,168,179.5a7.88,7.88,0,0,0-3-.58,6.56,6.56,0,0,0-3.36.86,6.07,6.07,0,0,0-2.32,2.37,7.69,7.69,0,0,0,0,7,6.19,6.19,0,0,0,2.32,2.39,6.39,6.39,0,0,0,3.36.89,7.51,7.51,0,0,0,3.07-.6,7.13,7.13,0,0,0,2.4-1.75l4.37,4.43a12.33,12.33,0,0,1-4.35,3.21A13.62,13.62,0,0,1,164.94,198.83Z" transform="translate(-103.99 -161.17)"/><path d="M177,198.25V173.09H184v25.16Z" transform="translate(-103.99 -161.17)"/><path d="M200.11,198.83a13.56,13.56,0,0,1-6.85-1.75,12.94,12.94,0,0,1-6.59-11.49,12.64,12.64,0,0,1,1.77-6.64,13.15,13.15,0,0,1,4.82-4.69,13.55,13.55,0,0,1,6.85-1.74,13.85,13.85,0,0,1,6.9,1.71,13.07,13.07,0,0,1,4.85,4.69,12.63,12.63,0,0,1,1.8,6.67A13,13,0,0,1,207,197.08,13.83,13.83,0,0,1,200.11,198.83Zm0-6.41a6.52,6.52,0,0,0,3.41-.89,6.14,6.14,0,0,0,2.3-2.39,7.43,7.43,0,0,0,.8-3.5,6.9,6.9,0,0,0-.86-3.49,6.66,6.66,0,0,0-9-2.37,6,6,0,0,0-2.27,2.37,7.95,7.95,0,0,0,0,7,6.13,6.13,0,0,0,2.27,2.39A6.28,6.28,0,0,0,200.11,192.42Z" transform="translate(-103.99 -161.17)"/><path d="M216.31,198.25V173.09h6.83v25.16Zm16.36,0V183.4a4.39,4.39,0,0,0-1.35-3.41,4.9,4.9,0,0,0-3.39-1.22,5.29,5.29,0,0,0-2.42.54,4.38,4.38,0,0,0-1.72,1.59,4.79,4.79,0,0,0-.65,2.56l-2.66-1.36a9.67,9.67,0,0,1,1.28-5,8.74,8.74,0,0,1,3.46-3.31,10.34,10.34,0,0,1,4.95-1.17,9.68,9.68,0,0,1,4.74,1.17A8.76,8.76,0,0,1,238.3,177a9.72,9.72,0,0,1,1.25,5v16.2Zm16.42,0V183.4a4.39,4.39,0,0,0-1.36-3.41,4.8,4.8,0,0,0-3.33-1.22,5.42,5.42,0,0,0-2.48.54,4.45,4.45,0,0,0-1.72,1.59,4.79,4.79,0,0,0-.65,2.56l-3.91-1a10.53,10.53,0,0,1,1.59-5.27,10.1,10.1,0,0,1,3.73-3.41,11.4,11.4,0,0,1,10.16,0,9,9,0,0,1,3.57,3.36,10,10,0,0,1,1.32,5.26v15.89Z" transform="translate(-103.99 -161.17)"/><circle class="cls-1" cx="76.52" cy="3.95" r="3.95"/></svg>